
<svg xmlns="http://www.w3.org/2000/svg" fill="none" viewBox="0 0 1409 769"><path stroke="#373737" stroke-dasharray="1 1" d="M0 280.5 1408 280.5"/><path stroke="#373737" stroke-dasharray="1 1" d="M0 288.5 1408 288.5"/><path stroke="#373737" stroke-dasharray="1 1" d="M0 296.5 1408 296.5"/><path stroke="#373737" stroke-dasharray="1 1" d="M0 304.5 1408 304.5"/><path stroke="#373737" stroke-dasharray="1 1" d="M0 312.5 1408 312.5"/><path stroke="#373737" stroke-dasharray="1 1" d="M0 320.5 1408 320.5"/><path stroke="#373737" stroke-dasharray="1 1" d="M0 328.5 1408 328.5"/><path stroke="#373737" stroke-dasharray="1 1" d="M0 336.5 1408 336.5"/><path stroke="#373737" stroke-dasharray="1 1" d="M0 344.5 1408 344.5"/><path stroke="#373737" stroke-dasharray="1 1" d="M0 352.5 1408 352.5"/><path stroke="#373737" stroke-dasharray="1 1" d="M0 360.5 1408 360.5"/><path stroke="#373737" stroke-dasharray="1 1" d="M0 368.5 1408 368.5"/><path stroke="#373737" stroke-dasharray="1 1" d="M0 376.5 1408 376.5"/><path stroke="#373737" stroke-dasharray="1 1" d="M0 384.5 1408 384.5"/><path stroke="#373737" stroke-dasharray="1 1" d="M0 392.5 1408 392.5"/><path stroke="#373737" stroke-dasharray="1 1" d="M0 400.5 1408 400.5"/><path stroke="#373737" stroke-dasharray="1 1" d="M0 408.5 1408 408.5"/><path stroke="#373737" stroke-dasharray="1 1" d="M0 416.5 1408 416.5"/><path stroke="#373737" stroke-dasharray="1 1" d="M0 424.5 1408 424.5"/><path stroke="#373737" stroke-dasharray="1 1" d="M0 432.5 1408 432.5"/><path stroke="#373737" stroke-dasharray="1 1" d="M0 440.5 1408 440.5"/><path stroke="#373737" stroke-dasharray="1 1" d="M0 448.5 1408 448.5"/><path stroke="#373737" stroke-dasharray="1 1" d="M0 456.5 1408 456.5"/><path stroke="#373737" stroke-dasharray="1 1" d="M0 464.5 1408 464.5"/><path stroke="#373737" stroke-dasharray="1 1" d="M0 472.5 1408 472.5"/><path stroke="#373737" stroke-dasharray="1 1" d="M0 480.5 1408 480.5"/><path stroke="#373737" stroke-dasharray="1 1" d="M0 488.5 1408 488.5"/><path stroke="#373737" stroke-dasharray="1 1" d="M0 496.5 1408 496.5"/><path stroke="#373737" stroke-dasharray="1 1" d="M0 504.5 1408 504.5"/><path stroke="#373737" stroke-dasharray="1 1" d="M0 512.5 1408 512.5"/><path stroke="#373737" stroke-dasharray="1 1" d="M0 520.5 1408 520.5"/><path stroke="#373737" stroke-dasharray="1 1" d="M0 528.5 1408 528.5"/><path stroke="#373737" stroke-dasharray="1 1" d="M0 536.5 1408 536.5"/><path stroke="#373737" stroke-dasharray="1 1" d="M0 544.5 1408 544.5"/><path stroke="#373737" stroke-dasharray="1 1" d="M0 552.5 1408 552.5"/><path stroke="#373737" stroke-dasharray="1 1" d="M0 560.5 1408 560.5"/><path stroke="#373737" stroke-dasharray="1 1" d="M0 568.5 1408 568.5"/><path stroke="#373737" stroke-dasharray="1 1" d="M0 576.5 1408 576.5"/><path stroke="#373737" stroke-dasharray="1 1" d="M0 584.5 1408 584.5"/><path stroke="#373737" stroke-dasharray="1 1" d="M0 592.5 1408 592.5"/><path stroke="#373737" stroke-dasharray="1 1" d="M0 600.5 1408 600.5"/><path stroke="#373737" stroke-dasharray="1 1" d="M0 608.5 1408 608.5"/><path stroke="#373737" stroke-dasharray="1 1" d="M0 616.5 1408 616.5"/><path stroke="#373737" stroke-dasharray="1 1" d="M0 624.5 1408 624.5"/><path stroke="#373737" stroke-dasharray="1 1" d="M0 632.5 1408 632.5"/><path stroke="#373737" stroke-dasharray="1 1" d="M0 640.5 1408 640.5"/><path stroke="#373737" stroke-dasharray="1 1" d="M0 648.5 1408 648.5"/><path stroke="#373737" stroke-dasharray="1 1" d="M0 656.5 1408 656.5"/><path stroke="#373737" stroke-dasharray="1 1" d="M0 664.5 1408 664.5"/><path stroke="#373737" stroke-dasharray="1 1" d="M0 672.5 1408 672.5"/><path stroke="#373737" stroke-dasharray="1 1" d="M0 680.5 1408 680.5"/><path stroke="#373737" stroke-dasharray="1 1" d="M0 688.5 1408 688.5"/><path stroke="#373737" stroke-dasharray="1 1" d="M0 696.5 1408 696.5"/><path stroke="#373737" stroke-dasharray="1 1" d="M0 704.5 1408 704.5"/><path stroke="#373737" stroke-dasharray="1 1" d="M0 712.5 1408 712.5"/><path stroke="#373737" stroke-dasharray="1 1" d="M0 720.5 1408 720.5"/><path stroke="#373737" stroke-dasharray="1 1" d="M0 728.5 1408 728.5"/><path stroke="#373737" stroke-dasharray="1 1" d="M0 736.5 1408 736.5"/><path stroke="#373737" stroke-dasharray="1 1" d="M0 744.5 1408 744.5"/><path stroke="#373737" stroke-dasharray="1 1" d="M0 752.5 1408 752.5"/><path stroke="#373737" stroke-dasharray="1 1" d="M0 760.5 1408 760.5"/><path stroke="#373737" stroke-dasharray="1 1" d="M0 768.5 1408 768.5"/><path stroke="#373737" stroke-dasharray="1 1" d="M0 272.5 1408 272.5"/><path stroke="#373737" stroke-dasharray="1 1" d="M0 264.5 1408 264.5"/><path stroke="#373737" stroke-dasharray="1 1" d="M0 256.5 1408 256.5"/><path stroke="#373737" stroke-dasharray="1 1" d="M0 248.5 1408 248.5"/><path stroke="#373737" stroke-dasharray="1 1" d="M0 240.5 1408 240.5"/><path stroke="#373737" stroke-dasharray="1 1" d="M0 232.5 1408 232.5"/><path stroke="#373737" stroke-dasharray="1 1" d="M0 224.5 1408 224.5"/><path stroke="#373737" stroke-dasharray="1 1" d="M0 216.5 1408 216.5"/><path stroke="#373737" stroke-dasharray="1 1" d="M0 208.5 1408 208.5"/><path stroke="#373737" stroke-dasharray="1 1" d="M0 200.5 1408 200.5"/><path stroke="#373737" stroke-dasharray="1 1" d="M0 192.5 1408 192.5"/><path stroke="#373737" stroke-dasharray="1 1" d="M0 184.5 1408 184.5"/><path stroke="#373737" stroke-dasharray="1 1" d="M0 176.5 1408 176.5"/><path stroke="#373737" stroke-dasharray="1 1" d="M0 168.5 1408 168.5"/><path stroke="#373737" stroke-dasharray="1 1" d="M0 160.5 1408 160.5"/><path stroke="#373737" stroke-dasharray="1 1" d="M0 152.5 1408 152.5"/><path stroke="#373737" stroke-dasharray="1 1" d="M0 144.5 1408 144.5"/><path stroke="#373737" stroke-dasharray="1 1" d="M0 136.5 1408 136.5"/><path stroke="#373737" stroke-dasharray="1 1" d="M0 128.5 1408 128.5"/><path stroke="#373737" stroke-dasharray="1 1" d="M0 120.5 1408 120.5"/><path stroke="#373737" stroke-dasharray="1 1" d="M0 112.5 1408 112.5"/><path stroke="#373737" stroke-dasharray="1 1" d="M0 104.5 1408 104.5"/><path stroke="#373737" stroke-dasharray="1 1" d="M0 96.5 1408 96.5"/><path stroke="#373737" stroke-dasharray="1 1" d="M0 88.5 1408 88.5"/><path stroke="#373737" stroke-dasharray="1 1" d="M0 80.5 1408 80.5"/><path stroke="#373737" stroke-dasharray="1 1" d="M0 72.5 1408 72.5"/><path stroke="#373737" stroke-dasharray="1 1" d="M0 64.5 1408 64.5"/><path stroke="#373737" stroke-dasharray="1 1" d="M0 56.5 1408 56.5"/><path stroke="#373737" stroke-dasharray="1 1" d="M0 48.5 1408 48.5"/><path stroke="#373737" stroke-dasharray="1 1" d="M0 40.5 1408 40.5"/><path stroke="#373737" stroke-dasharray="1 1" d="M0 32.5 1408 32.5"/><path stroke="#373737" stroke-dasharray="1 1" d="M0 24.5 1408 24.5"/><path stroke="#373737" stroke-dasharray="1 1" d="M0 16.5 1408 16.5"/><path stroke="#373737" stroke-dasharray="1 1" d="M0 8.5 1408 8.5"/><path stroke="#373737" stroke-dasharray="1 1" d="M0 .5 1408 .5"/><path stroke="#373737" stroke-dasharray="1 1" d="M.5 1 .5 769"/><path stroke="#373737" stroke-dasharray="1 1" d="M8.5 1 8.5 769"/><path stroke="#373737" stroke-dasharray="1 1" d="M16.5 1 16.5 769"/><path stroke="#373737" stroke-dasharray="1 1" d="M24.5 1 24.5 769"/><path stroke="#373737" stroke-dasharray="1 1" d="M32.5 1 32.5 769"/><path stroke="#373737" stroke-dasharray="1 1" d="M40.5 1 40.5 769"/><path stroke="#373737" stroke-dasharray="1 1" d="M48.5 1 48.5 769"/><path stroke="#373737" stroke-dasharray="1 1" d="M56.5 1 56.5 769"/><path stroke="#373737" stroke-dasharray="1 1" d="M64.5 1 64.5 769"/><path stroke="#373737" stroke-dasharray="1 1" d="M72.5 1 72.5 769"/><path stroke="#373737" stroke-dasharray="1 1" d="M80.5 1 80.5 769"/><path stroke="#373737" stroke-dasharray="1 1" d="M88.5 1 88.5 769"/><path stroke="#373737" stroke-dasharray="1 1" d="M96.5 1 96.5 769"/><path stroke="#373737" stroke-dasharray="1 1" d="M104.5 1 104.5 769"/><path stroke="#373737" stroke-dasharray="1 1" d="M112.5 1 112.5 769"/><path stroke="#373737" stroke-dasharray="1 1" d="M120.5 1 120.5 769"/><path stroke="#373737" stroke-dasharray="1 1" d="M128.5 1 128.5 769"/><path stroke="#373737" stroke-dasharray="1 1" d="M136.5 1 136.5 769"/><path stroke="#373737" stroke-dasharray="1 1" d="M144.5 1 144.5 769"/><path stroke="#373737" stroke-dasharray="1 1" d="M152.5 1 152.5 769"/><path stroke="#373737" stroke-dasharray="1 1" d="M160.5 1 160.5 769"/><path stroke="#373737" stroke-dasharray="1 1" d="M168.5 1 168.5 769"/><path stroke="#373737" stroke-dasharray="1 1" d="M176.5 1 176.5 769"/><path stroke="#373737" stroke-dasharray="1 1" d="M184.5 1 184.5 769"/><path stroke="#373737" stroke-dasharray="1 1" d="M192.5 1 192.5 769"/><path stroke="#373737" stroke-dasharray="1 1" d="M200.5 1 200.5 769"/><path stroke="#373737" stroke-dasharray="1 1" d="M208.5 1 208.5 769"/><path stroke="#373737" stroke-dasharray="1 1" d="M216.5 1 216.5 769"/><path stroke="#373737" stroke-dasharray="1 1" d="M224.5 1 224.5 769"/><path stroke="#373737" stroke-dasharray="1 1" d="M232.5 1 232.5 769"/><path stroke="#373737" stroke-dasharray="1 1" d="M240.5 1 240.5 769"/><path stroke="#373737" stroke-dasharray="1 1" d="M248.5 1 248.5 769"/><path stroke="#373737" stroke-dasharray="1 1" d="M256.5 1 256.5 769"/><path stroke="#373737" stroke-dasharray="1 1" d="M264.5 1 264.5 769"/><path stroke="#373737" stroke-dasharray="1 1" d="M272.5 1 272.5 769"/><path stroke="#373737" stroke-dasharray="1 1" d="M280.5 1 280.5 769"/><path stroke="#373737" stroke-dasharray="1 1" d="M288.5 1 288.5 769"/><path stroke="#373737" stroke-dasharray="1 1" d="M296.5 1 296.5 769"/><path stroke="#373737" stroke-dasharray="1 1" d="M304.5 1 304.5 769"/><path stroke="#373737" stroke-dasharray="1 1" d="M312.5 1 312.5 769"/><path stroke="#373737" stroke-dasharray="1 1" d="M320.5 1 320.5 769"/><path stroke="#373737" stroke-dasharray="1 1" d="M328.5 1 328.5 769"/><path stroke="#373737" stroke-dasharray="1 1" d="M336.5 1 336.5 769"/><path stroke="#373737" stroke-dasharray="1 1" d="M344.5 1 344.5 769"/><path stroke="#373737" stroke-dasharray="1 1" d="M352.5 1 352.5 769"/><path stroke="#373737" stroke-dasharray="1 1" d="M360.5 1 360.5 769"/><path stroke="#373737" stroke-dasharray="1 1" d="M368.5 1 368.5 769"/><path stroke="#373737" stroke-dasharray="1 1" d="M376.5 1 376.5 769"/><path stroke="#373737" stroke-dasharray="1 1" d="M384.5 1 384.5 769"/><path stroke="#373737" stroke-dasharray="1 1" d="M392.5 1 392.5 769"/><path stroke="#373737" stroke-dasharray="1 1" d="M400.5 1 400.5 769"/><path stroke="#373737" stroke-dasharray="1 1" d="M408.5 1 408.5 769"/><path stroke="#373737" stroke-dasharray="1 1" d="M416.5 1 416.5 769"/><path stroke="#373737" stroke-dasharray="1 1" d="M424.5 1 424.5 769"/><path stroke="#373737" stroke-dasharray="1 1" d="M432.5 1 432.5 769"/><path stroke="#373737" stroke-dasharray="1 1" d="M440.5 1 440.5 769"/><path stroke="#373737" stroke-dasharray="1 1" d="M448.5 1 448.5 769"/><path stroke="#373737" stroke-dasharray="1 1" d="M456.5 1 456.5 769"/><path stroke="#373737" stroke-dasharray="1 1" d="M464.5 1 464.5 769"/><path stroke="#373737" stroke-dasharray="1 1" d="M472.5 1 472.5 769"/><path stroke="#373737" stroke-dasharray="1 1" d="M480.5 1 480.5 769"/><path stroke="#373737" stroke-dasharray="1 1" d="M488.5 1 488.5 769"/><path stroke="#373737" stroke-dasharray="1 1" d="M496.5 1 496.5 769"/><path stroke="#373737" stroke-dasharray="1 1" d="M504.5 1 504.5 769"/><path stroke="#373737" stroke-dasharray="1 1" d="M512.5 1 512.5 769"/><path stroke="#373737" stroke-dasharray="1 1" d="M520.5 1 520.5 769"/><path stroke="#373737" stroke-dasharray="1 1" d="M528.5 1 528.5 769"/><path stroke="#373737" stroke-dasharray="1 1" d="M536.5 1 536.5 769"/><path stroke="#373737" stroke-dasharray="1 1" d="M544.5 1 544.5 769"/><path stroke="#373737" stroke-dasharray="1 1" d="M552.5 1 552.5 769"/><path stroke="#373737" stroke-dasharray="1 1" d="M560.5 1 560.5 769"/><path stroke="#373737" stroke-dasharray="1 1" d="M568.5 1 568.5 769"/><path stroke="#373737" stroke-dasharray="1 1" d="M576.5 1 576.5 769"/><path stroke="#373737" stroke-dasharray="1 1" d="M584.5 1 584.5 769"/><path stroke="#373737" stroke-dasharray="1 1" d="M592.5 1 592.5 769"/><path stroke="#373737" stroke-dasharray="1 1" d="M600.5 1 600.5 769"/><path stroke="#373737" stroke-dasharray="1 1" d="M608.5 1 608.5 769"/><path stroke="#373737" stroke-dasharray="1 1" d="M616.5 1 616.5 769"/><path stroke="#373737" stroke-dasharray="1 1" d="M624.5 1 624.5 769"/><path stroke="#373737" stroke-dasharray="1 1" d="M632.5 1 632.5 769"/><path stroke="#373737" stroke-dasharray="1 1" d="M640.5 1 640.5 769"/><path stroke="#373737" stroke-dasharray="1 1" d="M648.5 1 648.5 769"/><path stroke="#373737" stroke-dasharray="1 1" d="M656.5 1 656.5 769"/><path stroke="#373737" stroke-dasharray="1 1" d="M664.5 1 664.5 769"/><path stroke="#373737" stroke-dasharray="1 1" d="M672.5 1 672.5 769"/><path stroke="#373737" stroke-dasharray="1 1" d="M680.5 1 680.5 769"/><path stroke="#373737" stroke-dasharray="1 1" d="M688.5 1 688.5 769"/><path stroke="#373737" stroke-dasharray="1 1" d="M696.5 1 696.5 769"/><path stroke="#373737" stroke-dasharray="1 1" d="M704.5 1 704.5 769"/><path stroke="#373737" stroke-dasharray="1 1" d="M712.5 1 712.5 769"/><path stroke="#373737" stroke-dasharray="1 1" d="M720.5 1 720.5 769"/><path stroke="#373737" stroke-dasharray="1 1" d="M728.5 1 728.5 769"/><path stroke="#373737" stroke-dasharray="1 1" d="M736.5 1 736.5 769"/><path stroke="#373737" stroke-dasharray="1 1" d="M744.5 1 744.5 769"/><path stroke="#373737" stroke-dasharray="1 1" d="M752.5 1 752.5 769"/><path stroke="#373737" stroke-dasharray="1 1" d="M760.5 1 760.5 769"/><path stroke="#373737" stroke-dasharray="1 1" d="M768.5 1 768.5 769"/><path stroke="#373737" stroke-dasharray="1 1" d="M776.5 1 776.5 769"/><path stroke="#373737" stroke-dasharray="1 1" d="M784.5 1 784.5 769"/><path stroke="#373737" stroke-dasharray="1 1" d="M792.5 1 792.5 769"/><path stroke="#373737" stroke-dasharray="1 1" d="M800.5 1 800.5 769"/><path stroke="#373737" stroke-dasharray="1 1" d="M808.5 1 808.5 769"/><path stroke="#373737" stroke-dasharray="1 1" d="M816.5 1 816.5 769"/><path stroke="#373737" stroke-dasharray="1 1" d="M824.5 1 824.5 769"/><path stroke="#373737" stroke-dasharray="1 1" d="M832.5 1 832.5 769"/><path stroke="#373737" stroke-dasharray="1 1" d="M840.5 1 840.5 769"/><path stroke="#373737" stroke-dasharray="1 1" d="M848.5 1 848.5 769"/><path stroke="#373737" stroke-dasharray="1 1" d="M856.5 1 856.5 769"/><path stroke="#373737" stroke-dasharray="1 1" d="M864.5 1 864.5 769"/><path stroke="#373737" stroke-dasharray="1 1" d="M872.5 1 872.5 769"/><path stroke="#373737" stroke-dasharray="1 1" d="M880.5 1 880.5 769"/><path stroke="#373737" stroke-dasharray="1 1" d="M888.5 1 888.5 769"/><path stroke="#373737" stroke-dasharray="1 1" d="M896.5 1 896.5 769"/><path stroke="#373737" stroke-dasharray="1 1" d="M904.5 1 904.5 769"/><path stroke="#373737" stroke-dasharray="1 1" d="M912.5 1 912.5 769"/><path stroke="#373737" stroke-dasharray="1 1" d="M920.5 1 920.5 769"/><path stroke="#373737" stroke-dasharray="1 1" d="M928.5 1 928.5 769"/><path stroke="#373737" stroke-dasharray="1 1" d="M936.5 1 936.5 769"/><path stroke="#373737" stroke-dasharray="1 1" d="M944.5 1 944.5 769"/><path stroke="#373737" stroke-dasharray="1 1" d="M952.5 1 952.5 769"/><path stroke="#373737" stroke-dasharray="1 1" d="M960.5 1 960.5 769"/><path stroke="#373737" stroke-dasharray="1 1" d="M968.5 1 968.5 769"/><path stroke="#373737" stroke-dasharray="1 1" d="M976.5 1 976.5 769"/><path stroke="#373737" stroke-dasharray="1 1" d="M984.5 1 984.5 769"/><path stroke="#373737" stroke-dasharray="1 1" d="M992.5 1 992.5 769"/><path stroke="#373737" stroke-dasharray="1 1" d="M1000.5 1 1000.5 769"/><path stroke="#373737" stroke-dasharray="1 1" d="M1008.5 1 1008.5 769"/><path stroke="#373737" stroke-dasharray="1 1" d="M1016.5 1 1016.5 769"/><path stroke="#373737" stroke-dasharray="1 1" d="M1024.5 1 1024.5 769"/><path stroke="#373737" stroke-dasharray="1 1" d="M1032.5 1 1032.5 769"/><path stroke="#373737" stroke-dasharray="1 1" d="M1040.5 1 1040.5 769"/><path stroke="#373737" stroke-dasharray="1 1" d="M1048.5 1 1048.5 769"/><path stroke="#373737" stroke-dasharray="1 1" d="M1056.5 1 1056.5 769"/><path stroke="#373737" stroke-dasharray="1 1" d="M1064.5 1 1064.5 769"/><path stroke="#373737" stroke-dasharray="1 1" d="M1072.5 1 1072.5 769"/><path stroke="#373737" stroke-dasharray="1 1" d="M1080.5 1 1080.5 769"/><path stroke="#373737" stroke-dasharray="1 1" d="M1088.5 1 1088.5 769"/><path stroke="#373737" stroke-dasharray="1 1" d="M1096.5 1 1096.5 769"/><path stroke="#373737" stroke-dasharray="1 1" d="M1104.5 1 1104.5 769"/><path stroke="#373737" stroke-dasharray="1 1" d="M1112.5 1 1112.5 769"/><path stroke="#373737" stroke-dasharray="1 1" d="M1120.5 1 1120.5 769"/><path stroke="#373737" stroke-dasharray="1 1" d="M1128.5 1 1128.5 769"/><path stroke="#373737" stroke-dasharray="1 1" d="M1136.5 1 1136.5 769"/><path stroke="#373737" stroke-dasharray="1 1" d="M1144.5 1 1144.5 769"/><path stroke="#373737" stroke-dasharray="1 1" d="M1152.5 1 1152.5 769"/><path stroke="#373737" stroke-dasharray="1 1" d="M1160.5 1 1160.5 769"/><path stroke="#373737" stroke-dasharray="1 1" d="M1168.5 1 1168.5 769"/><path stroke="#373737" stroke-dasharray="1 1" d="M1176.5 1 1176.5 769"/><path stroke="#373737" stroke-dasharray="1 1" d="M1184.5 1 1184.5 769"/><path stroke="#373737" stroke-dasharray="1 1" d="M1192.5 1 1192.5 769"/><path stroke="#373737" stroke-dasharray="1 1" d="M1200.5 1 1200.5 769"/><path stroke="#373737" stroke-dasharray="1 1" d="M1208.5 1 1208.5 769"/><path stroke="#373737" stroke-dasharray="1 1" d="M1216.5 1 1216.5 769"/><path stroke="#373737" stroke-dasharray="1 1" d="M1224.5 1 1224.5 769"/><path stroke="#373737" stroke-dasharray="1 1" d="M1232.5 1 1232.5 769"/><path stroke="#373737" stroke-dasharray="1 1" d="M1240.5 1 1240.5 769"/><path stroke="#373737" stroke-dasharray="1 1" d="M1248.5 1 1248.5 769"/><path stroke="#373737" stroke-dasharray="1 1" d="M1256.5 1 1256.5 769"/><path stroke="#373737" stroke-dasharray="1 1" d="M1264.5 1 1264.5 769"/><path stroke="#373737" stroke-dasharray="1 1" d="M1272.5 1 1272.5 769"/><path stroke="#373737" stroke-dasharray="1 1" d="M1280.5 1 1280.5 769"/><path stroke="#373737" stroke-dasharray="1 1" d="M1288.5 1 1288.5 769"/><path stroke="#373737" stroke-dasharray="1 1" d="M1296.5 1 1296.5 769"/><path stroke="#373737" stroke-dasharray="1 1" d="M1304.5 1 1304.5 769"/><path stroke="#373737" stroke-dasharray="1 1" d="M1312.5 1 1312.5 769"/><path stroke="#373737" stroke-dasharray="1 1" d="M1320.5 1 1320.5 769"/><path stroke="#373737" stroke-dasharray="1 1" d="M1328.5 1 1328.5 769"/><path stroke="#373737" stroke-dasharray="1 1" d="M1336.5 1 1336.5 769"/><path stroke="#373737" stroke-dasharray="1 1" d="M1344.5 1 1344.5 769"/><path stroke="#373737" stroke-dasharray="1 1" d="M1352.5 1 1352.5 769"/><path stroke="#373737" stroke-dasharray="1 1" d="M1360.5 1 1360.5 769"/><path stroke="#373737" stroke-dasharray="1 1" d="M1368.5 1 1368.5 769"/><path stroke="#373737" stroke-dasharray="1 1" d="M1376.5 1 1376.5 769"/><path stroke="#373737" stroke-dasharray="1 1" d="M1384.5 1 1384.5 769"/><path stroke="#373737" stroke-dasharray="1 1" d="M1392.5 1 1392.5 769"/><path stroke="#373737" stroke-dasharray="1 1" d="M1400.5 1 1400.5 769"/><path stroke="#373737" stroke-dasharray="1 1" d="M1408.5 1 1408.5 769"/></svg>